<svg xmlns="http://www.w3.org/2000/svg" xmlns:xlink="http://www.w3.org/1999/xlink" width="300" zoomAndPan="magnify" viewBox="0 0 224.87999 74.999997" height="100" preserveAspectRatio="xMidYMid meet" version="1.0"><defs><clipPath id="456a50b294"><path d="M 50.875 25.640625 L 194.765625 25.640625 L 194.765625 52.246094 L 50.875 52.246094 Z M 50.875 25.640625 " clip-rule="nonzero"/></clipPath><clipPath id="93982c9dfb"><path d="M 51 55.234375 L 76 55.234375 L 76 61.414062 L 51 61.414062 Z M 51 55.234375 " clip-rule="nonzero"/></clipPath><clipPath id="69357a4054"><path d="M 78 55.234375 L 180.527344 55.234375 L 180.527344 61.414062 L 78 61.414062 Z M 78 55.234375 " clip-rule="nonzero"/></clipPath><clipPath id="dd0924924e"><path d="M 79.339844 55.410156 L 79.339844 61.132812 L 78.472656 61.132812 L 78.472656 55.410156 Z M 85.308594 55.410156 L 85.308594 61.132812 L 84.511719 61.132812 L 81.589844 56.9375 L 81.535156 56.9375 L 81.535156 61.132812 L 80.667969 61.132812 L 80.667969 55.410156 L 81.472656 55.410156 L 84.398438 59.613281 L 84.453125 59.613281 L 84.453125 55.410156 Z M 86.355469 56.15625 L 86.355469 55.410156 L 90.808594 55.410156 L 90.808594 56.15625 L 89.011719 56.15625 L 89.011719 61.132812 L 88.148438 61.132812 L 88.148438 56.15625 Z M 91.855469 61.132812 L 91.855469 55.410156 L 95.460938 55.410156 L 95.460938 56.15625 L 92.722656 56.15625 L 92.722656 57.898438 L 95.273438 57.898438 L 95.273438 58.640625 L 92.722656 58.640625 L 92.722656 60.390625 L 95.492188 60.390625 L 95.492188 61.132812 Z M 96.683594 61.132812 L 96.683594 55.410156 L 97.550781 55.410156 L 97.550781 60.390625 L 100.15625 60.390625 L 100.15625 61.132812 Z M 101.210938 61.132812 L 101.210938 55.410156 L 102.078125 55.410156 L 102.078125 60.390625 L 104.683594 60.390625 L 104.683594 61.132812 Z M 106.605469 55.410156 L 106.605469 61.132812 L 105.738281 61.132812 L 105.738281 55.410156 Z M 111.824219 57.21875 C 111.769531 57.050781 111.695312 56.898438 111.605469 56.765625 C 111.515625 56.628906 111.40625 56.511719 111.28125 56.417969 C 111.15625 56.320312 111.011719 56.246094 110.851562 56.195312 C 110.691406 56.144531 110.519531 56.121094 110.328125 56.121094 C 110.003906 56.121094 109.710938 56.203125 109.449219 56.371094 C 109.191406 56.535156 108.984375 56.777344 108.832031 57.097656 C 108.683594 57.417969 108.609375 57.808594 108.609375 58.269531 C 108.609375 58.734375 108.683594 59.125 108.835938 59.445312 C 108.988281 59.765625 109.195312 60.011719 109.460938 60.175781 C 109.722656 60.339844 110.023438 60.425781 110.359375 60.425781 C 110.671875 60.425781 110.945312 60.359375 111.179688 60.234375 C 111.414062 60.109375 111.59375 59.929688 111.71875 59.699219 C 111.847656 59.464844 111.914062 59.191406 111.914062 58.875 L 112.140625 58.917969 L 110.492188 58.917969 L 110.492188 58.207031 L 112.753906 58.207031 L 112.753906 58.855469 C 112.753906 59.335938 112.652344 59.753906 112.445312 60.109375 C 112.242188 60.460938 111.957031 60.734375 111.597656 60.925781 C 111.238281 61.117188 110.824219 61.210938 110.359375 61.210938 C 109.839844 61.210938 109.382812 61.09375 108.992188 60.855469 C 108.597656 60.617188 108.292969 60.277344 108.074219 59.839844 C 107.855469 59.402344 107.746094 58.878906 107.746094 58.277344 C 107.746094 57.820312 107.808594 57.410156 107.9375 57.046875 C 108.066406 56.683594 108.242188 56.375 108.472656 56.121094 C 108.707031 55.867188 108.976562 55.671875 109.289062 55.539062 C 109.605469 55.402344 109.949219 55.332031 110.320312 55.332031 C 110.632812 55.332031 110.921875 55.378906 111.191406 55.46875 C 111.457031 55.5625 111.699219 55.691406 111.910156 55.859375 C 112.121094 56.027344 112.296875 56.226562 112.433594 56.457031 C 112.570312 56.6875 112.664062 56.941406 112.714844 57.21875 Z M 113.917969 61.132812 L 113.917969 55.410156 L 117.523438 55.410156 L 117.523438 56.15625 L 114.785156 56.15625 L 114.785156 57.898438 L 117.335938 57.898438 L 117.335938 58.640625 L 114.785156 58.640625 L 114.785156 60.390625 L 117.558594 60.390625 L 117.558594 61.132812 Z M 123.390625 55.410156 L 123.390625 61.132812 L 122.589844 61.132812 L 119.667969 56.9375 L 119.613281 56.9375 L 119.613281 61.132812 L 118.746094 61.132812 L 118.746094 55.410156 L 119.550781 55.410156 L 122.476562 59.613281 L 122.53125 59.613281 L 122.53125 55.410156 Z M 129.496094 57.273438 L 128.621094 57.273438 C 128.585938 57.085938 128.523438 56.921875 128.429688 56.78125 C 128.339844 56.640625 128.226562 56.519531 128.09375 56.421875 C 127.960938 56.320312 127.8125 56.246094 127.648438 56.195312 C 127.484375 56.144531 127.3125 56.121094 127.128906 56.121094 C 126.796875 56.121094 126.5 56.203125 126.238281 56.371094 C 125.976562 56.535156 125.769531 56.777344 125.621094 57.097656 C 125.46875 57.417969 125.394531 57.8125 125.394531 58.273438 C 125.394531 58.738281 125.46875 59.132812 125.621094 59.453125 C 125.769531 59.773438 125.976562 60.015625 126.242188 60.179688 C 126.503906 60.34375 126.796875 60.425781 127.125 60.425781 C 127.308594 60.425781 127.480469 60.402344 127.640625 60.351562 C 127.808594 60.300781 127.957031 60.226562 128.089844 60.132812 C 128.222656 60.035156 128.332031 59.917969 128.425781 59.777344 C 128.519531 59.632812 128.582031 59.472656 128.621094 59.289062 L 129.496094 59.292969 C 129.449219 59.574219 129.359375 59.832031 129.222656 60.070312 C 129.089844 60.304688 128.917969 60.507812 128.710938 60.679688 C 128.5 60.847656 128.261719 60.980469 127.996094 61.074219 C 127.726562 61.167969 127.4375 61.210938 127.121094 61.210938 C 126.621094 61.210938 126.179688 61.09375 125.789062 60.859375 C 125.398438 60.625 125.09375 60.285156 124.867188 59.847656 C 124.644531 59.40625 124.53125 58.882812 124.53125 58.273438 C 124.53125 57.660156 124.644531 57.136719 124.871094 56.699219 C 125.09375 56.261719 125.402344 55.921875 125.792969 55.6875 C 126.179688 55.453125 126.625 55.332031 127.121094 55.332031 C 127.425781 55.332031 127.710938 55.378906 127.972656 55.464844 C 128.238281 55.550781 128.476562 55.675781 128.6875 55.84375 C 128.902344 56.011719 129.074219 56.214844 129.214844 56.453125 C 129.351562 56.691406 129.445312 56.964844 129.496094 57.273438 Z M 130.597656 61.132812 L 130.597656 55.410156 L 134.203125 55.410156 L 134.203125 56.15625 L 131.464844 56.15625 L 131.464844 57.898438 L 134.015625 57.898438 L 134.015625 58.640625 L 131.464844 58.640625 L 131.464844 60.390625 L 134.238281 60.390625 L 134.238281 61.132812 Z M 140.71875 56.914062 C 140.6875 56.648438 140.566406 56.445312 140.347656 56.300781 C 140.128906 56.152344 139.855469 56.078125 139.527344 56.078125 C 139.292969 56.078125 139.085938 56.117188 138.914062 56.191406 C 138.742188 56.265625 138.609375 56.363281 138.515625 56.492188 C 138.421875 56.621094 138.375 56.765625 138.375 56.925781 C 138.375 57.0625 138.40625 57.179688 138.46875 57.277344 C 138.535156 57.375 138.621094 57.460938 138.726562 57.527344 C 138.832031 57.59375 138.945312 57.648438 139.066406 57.691406 C 139.1875 57.734375 139.304688 57.769531 139.417969 57.796875 L 139.980469 57.941406 C 140.164062 57.988281 140.351562 58.046875 140.542969 58.125 C 140.738281 58.203125 140.917969 58.300781 141.082031 58.425781 C 141.246094 58.550781 141.378906 58.707031 141.480469 58.890625 C 141.582031 59.074219 141.632812 59.296875 141.632812 59.554688 C 141.632812 59.878906 141.550781 60.164062 141.382812 60.417969 C 141.214844 60.667969 140.972656 60.867188 140.652344 61.011719 C 140.335938 61.15625 139.953125 61.230469 139.503906 61.230469 C 139.074219 61.230469 138.703125 61.160156 138.386719 61.027344 C 138.074219 60.890625 137.828125 60.695312 137.648438 60.445312 C 137.472656 60.195312 137.371094 59.898438 137.355469 59.554688 L 138.226562 59.554688 C 138.242188 59.757812 138.308594 59.933594 138.425781 60.070312 C 138.546875 60.207031 138.699219 60.308594 138.882812 60.375 C 139.070312 60.441406 139.277344 60.472656 139.5 60.472656 C 139.746094 60.472656 139.964844 60.433594 140.152344 60.359375 C 140.347656 60.28125 140.5 60.171875 140.609375 60.035156 C 140.71875 59.894531 140.773438 59.730469 140.773438 59.542969 C 140.773438 59.375 140.726562 59.234375 140.628906 59.128906 C 140.535156 59.019531 140.402344 58.929688 140.238281 58.859375 C 140.074219 58.789062 139.890625 58.726562 139.683594 58.671875 L 139.003906 58.488281 C 138.542969 58.363281 138.179688 58.179688 137.910156 57.9375 C 137.640625 57.695312 137.507812 57.375 137.507812 56.976562 C 137.507812 56.648438 137.597656 56.359375 137.777344 56.113281 C 137.957031 55.867188 138.203125 55.675781 138.507812 55.539062 C 138.816406 55.402344 139.160156 55.332031 139.546875 55.332031 C 139.9375 55.332031 140.28125 55.402344 140.578125 55.539062 C 140.878906 55.671875 141.113281 55.859375 141.285156 56.097656 C 141.457031 56.335938 141.546875 56.609375 141.554688 56.914062 Z M 143.601562 55.410156 L 143.601562 61.132812 L 142.734375 61.132812 L 142.734375 55.410156 Z M 144.929688 55.410156 L 145.980469 55.410156 L 147.8125 59.859375 L 147.878906 59.859375 L 149.710938 55.410156 L 150.765625 55.410156 L 150.765625 61.132812 L 149.9375 61.132812 L 149.9375 56.992188 L 149.886719 56.992188 L 148.191406 61.125 L 147.503906 61.125 L 145.808594 56.992188 L 145.753906 56.992188 L 145.753906 61.132812 L 144.929688 61.132812 Z M 152.089844 61.132812 L 152.089844 55.410156 L 154.140625 55.410156 C 154.585938 55.410156 154.957031 55.492188 155.253906 55.65625 C 155.546875 55.816406 155.765625 56.039062 155.914062 56.320312 C 156.058594 56.597656 156.132812 56.914062 156.132812 57.265625 C 156.132812 57.617188 156.058594 57.933594 155.910156 58.214844 C 155.761719 58.492188 155.542969 58.714844 155.246094 58.878906 C 154.953125 59.042969 154.582031 59.121094 154.136719 59.121094 L 152.726562 59.121094 L 152.726562 58.390625 L 154.058594 58.390625 C 154.339844 58.390625 154.570312 58.34375 154.746094 58.246094 C 154.921875 58.144531 155.050781 58.011719 155.132812 57.84375 C 155.214844 57.671875 155.257812 57.480469 155.257812 57.265625 C 155.257812 57.046875 155.214844 56.855469 155.132812 56.6875 C 155.050781 56.519531 154.921875 56.390625 154.742188 56.292969 C 154.566406 56.199219 154.335938 56.152344 154.046875 56.152344 L 152.957031 56.152344 L 152.957031 61.132812 Z M 157.210938 61.132812 L 157.210938 55.410156 L 158.078125 55.410156 L 158.078125 60.390625 L 160.6875 60.390625 L 160.6875 61.132812 Z M 162.605469 55.410156 L 162.605469 61.132812 L 161.738281 61.132812 L 161.738281 55.410156 Z M 163.933594 61.132812 L 163.933594 55.410156 L 167.5 55.410156 L 167.5 56.15625 L 164.800781 56.15625 L 164.800781 57.898438 L 167.246094 57.898438 L 167.246094 58.640625 L 164.800781 58.640625 L 164.800781 61.132812 Z M 169.5 55.410156 L 169.5 61.132812 L 168.628906 61.132812 L 168.628906 55.410156 Z M 170.824219 61.132812 L 170.824219 55.410156 L 174.429688 55.410156 L 174.429688 56.15625 L 171.695312 56.15625 L 171.695312 57.898438 L 174.242188 57.898438 L 174.242188 58.640625 L 171.695312 58.640625 L 171.695312 60.390625 L 174.464844 60.390625 L 174.464844 61.132812 Z M 177.515625 61.132812 L 175.652344 61.132812 L 175.652344 55.410156 L 177.574219 55.410156 C 178.136719 55.410156 178.621094 55.527344 179.027344 55.753906 C 179.429688 55.984375 179.742188 56.308594 179.957031 56.734375 C 180.171875 57.160156 180.28125 57.671875 180.28125 58.265625 C 180.28125 58.859375 180.171875 59.371094 179.953125 59.800781 C 179.738281 60.230469 179.421875 60.558594 179.011719 60.789062 C 178.597656 61.019531 178.101562 61.132812 177.515625 61.132812 Z M 176.523438 60.378906 L 177.46875 60.378906 C 177.90625 60.378906 178.269531 60.296875 178.5625 60.132812 C 178.851562 59.96875 179.066406 59.730469 179.210938 59.414062 C 179.355469 59.101562 179.429688 58.71875 179.429688 58.265625 C 179.429688 57.816406 179.355469 57.433594 179.210938 57.121094 C 179.070312 56.808594 178.859375 56.570312 178.574219 56.410156 C 178.292969 56.246094 177.941406 56.164062 177.523438 56.164062 L 176.523438 56.164062 Z M 176.523438 60.378906 " clip-rule="nonzero"/></clipPath><linearGradient x1="258.30831" gradientTransform="matrix(0.282442, 0, 0, 0.281037, 50.881911, 55.232661)" y1="45.111343" x2="269.074312" gradientUnits="userSpaceOnUse" y2="-27.626883" id="822c771f64"><stop stop-opacity="1" stop-color="rgb(22.399902%, 6.298828%, 45.899963%)" offset="0"/><stop stop-opacity="1" stop-color="rgb(22.399902%, 6.298828%, 45.899963%)" offset="0.25"/><stop stop-opacity="1" stop-color="rgb(22.399902%, 6.298828%, 45.899963%)" offset="0.28225"/><stop stop-opacity="1" stop-color="rgb(22.399902%, 6.298828%, 45.899963%)" offset="0.375"/><stop stop-opacity="1" stop-color="rgb(22.399902%, 6.298828%, 45.899963%)" offset="0.4375"/><stop stop-opacity="1" stop-color="rgb(22.399902%, 6.298828%, 45.899963%)" offset="0.46875"/><stop stop-opacity="1" stop-color="rgb(22.859192%, 6.826782%, 46.336365%)" offset="0.472656"/><stop stop-opacity="1" stop-color="rgb(23.320007%, 7.354736%, 46.772766%)" offset="0.476563"/><stop stop-opacity="1" stop-color="rgb(23.79303%, 7.894897%, 47.219849%)" offset="0.480469"/><stop stop-opacity="1" stop-color="rgb(24.266052%, 8.436584%, 47.668457%)" offset="0.484375"/><stop stop-opacity="1" stop-color="rgb(24.739075%, 8.978271%, 48.11554%)" offset="0.488281"/><stop stop-opacity="1" stop-color="rgb(25.212097%, 9.519958%, 48.564148%)" offset="0.492188"/><stop stop-opacity="1" stop-color="rgb(25.683594%, 10.06012%, 49.01123%)" offset="0.496094"/><stop stop-opacity="1" stop-color="rgb(26.156616%, 10.601807%, 49.459839%)" offset="0.5"/><stop stop-opacity="1" stop-color="rgb(26.629639%, 11.141968%, 49.908447%)" offset="0.503906"/><stop stop-opacity="1" stop-color="rgb(27.102661%, 11.683655%, 50.357056%)" offset="0.507812"/><stop stop-opacity="1" stop-color="rgb(27.574158%, 12.225342%, 50.804138%)" offset="0.511719"/><stop stop-opacity="1" stop-color="rgb(28.04718%, 12.767029%, 51.252747%)" offset="0.515625"/><stop stop-opacity="1" stop-color="rgb(28.520203%, 13.30719%, 51.699829%)" offset="0.519531"/><stop stop-opacity="1" stop-color="rgb(28.993225%, 13.848877%, 52.148438%)" offset="0.523438"/><stop stop-opacity="1" stop-color="rgb(29.464722%, 14.390564%, 52.59552%)" offset="0.527344"/><stop stop-opacity="1" stop-color="rgb(29.937744%, 14.932251%, 53.044128%)" offset="0.53125"/><stop stop-opacity="1" stop-color="rgb(30.410767%, 15.472412%, 53.491211%)" offset="0.535156"/><stop stop-opacity="1" stop-color="rgb(30.883789%, 16.014099%, 53.939819%)" offset="0.539062"/><stop stop-opacity="1" stop-color="rgb(31.355286%, 16.55426%, 54.386902%)" offset="0.542969"/><stop stop-opacity="1" stop-color="rgb(31.828308%, 17.095947%, 54.83551%)" offset="0.546875"/><stop stop-opacity="1" stop-color="rgb(32.301331%, 17.637634%, 55.284119%)" offset="0.550781"/><stop stop-opacity="1" stop-color="rgb(32.774353%, 18.179321%, 55.732727%)" offset="0.554688"/><stop stop-opacity="1" stop-color="rgb(33.24585%, 18.719482%, 56.17981%)" offset="0.558594"/><stop stop-opacity="1" stop-color="rgb(33.718872%, 19.261169%, 56.628418%)" offset="0.5625"/><stop stop-opacity="1" stop-color="rgb(34.191895%, 19.802856%, 57.0755%)" offset="0.566406"/><stop stop-opacity="1" stop-color="rgb(34.664917%, 20.344543%, 57.524109%)" offset="0.570312"/><stop stop-opacity="1" stop-color="rgb(35.136414%, 20.884705%, 57.971191%)" offset="0.574219"/><stop stop-opacity="1" stop-color="rgb(35.609436%, 21.426392%, 58.4198%)" offset="0.578125"/><stop stop-opacity="1" stop-color="rgb(36.082458%, 21.966553%, 58.866882%)" offset="0.582031"/><stop stop-opacity="1" stop-color="rgb(36.555481%, 22.50824%, 59.315491%)" offset="0.585938"/><stop stop-opacity="1" stop-color="rgb(37.026978%, 23.049927%, 59.762573%)" offset="0.589844"/><stop stop-opacity="1" stop-color="rgb(37.5%, 23.591614%, 60.211182%)" offset="0.59375"/><stop stop-opacity="1" stop-color="rgb(37.973022%, 24.131775%, 60.65979%)" offset="0.597656"/><stop stop-opacity="1" stop-color="rgb(38.446045%, 24.673462%, 61.108398%)" offset="0.601562"/><stop stop-opacity="1" stop-color="rgb(38.917542%, 25.215149%, 61.555481%)" offset="0.605469"/><stop stop-opacity="1" stop-color="rgb(39.390564%, 25.756836%, 62.004089%)" offset="0.609375"/><stop stop-opacity="1" stop-color="rgb(39.863586%, 26.296997%, 62.451172%)" offset="0.613281"/><stop stop-opacity="1" stop-color="rgb(40.336609%, 26.838684%, 62.89978%)" offset="0.617188"/><stop stop-opacity="1" stop-color="rgb(40.808105%, 27.378845%, 63.346863%)" offset="0.621094"/><stop stop-opacity="1" stop-color="rgb(41.281128%, 27.920532%, 63.795471%)" offset="0.625"/><stop stop-opacity="1" stop-color="rgb(41.75415%, 28.462219%, 64.242554%)" offset="0.628906"/><stop stop-opacity="1" stop-color="rgb(42.227173%, 29.003906%, 64.691162%)" offset="0.632812"/><stop stop-opacity="1" stop-color="rgb(42.698669%, 29.544067%, 65.138245%)" offset="0.636719"/><stop stop-opacity="1" stop-color="rgb(43.171692%, 30.085754%, 65.586853%)" offset="0.640625"/><stop stop-opacity="1" stop-color="rgb(43.644714%, 30.625916%, 66.035461%)" offset="0.644531"/><stop stop-opacity="1" stop-color="rgb(44.117737%, 31.167603%, 66.48407%)" offset="0.648438"/><stop stop-opacity="1" stop-color="rgb(44.589233%, 31.70929%, 66.931152%)" offset="0.652344"/><stop stop-opacity="1" stop-color="rgb(45.062256%, 32.250977%, 67.379761%)" offset="0.65625"/><stop stop-opacity="1" stop-color="rgb(45.535278%, 32.791138%, 67.826843%)" offset="0.660156"/><stop stop-opacity="1" stop-color="rgb(46.008301%, 33.332825%, 68.275452%)" offset="0.664062"/><stop stop-opacity="1" stop-color="rgb(46.481323%, 33.874512%, 68.722534%)" offset="0.667969"/><stop stop-opacity="1" stop-color="rgb(46.954346%, 34.416199%, 69.171143%)" offset="0.671875"/><stop stop-opacity="1" stop-color="rgb(47.425842%, 34.95636%, 69.618225%)" offset="0.675781"/><stop stop-opacity="1" stop-color="rgb(47.898865%, 35.498047%, 70.066833%)" offset="0.679688"/><stop stop-opacity="1" stop-color="rgb(48.371887%, 36.038208%, 70.513916%)" offset="0.683594"/><stop stop-opacity="1" stop-color="rgb(48.84491%, 36.579895%, 70.962524%)" offset="0.6875"/><stop stop-opacity="1" stop-color="rgb(49.316406%, 37.121582%, 71.411133%)" offset="0.691406"/><stop stop-opacity="1" stop-color="rgb(49.789429%, 37.663269%, 71.859741%)" offset="0.695312"/><stop stop-opacity="1" stop-color="rgb(50.262451%, 38.20343%, 72.306824%)" offset="0.699219"/><stop stop-opacity="1" stop-color="rgb(50.735474%, 38.745117%, 72.755432%)" offset="0.703125"/><stop stop-opacity="1" stop-color="rgb(51.20697%, 39.286804%, 73.202515%)" offset="0.707031"/><stop stop-opacity="1" stop-color="rgb(51.679993%, 39.828491%, 73.651123%)" offset="0.710938"/><stop stop-opacity="1" stop-color="rgb(52.153015%, 40.368652%, 74.098206%)" offset="0.714844"/><stop stop-opacity="1" stop-color="rgb(52.626038%, 40.910339%, 74.546814%)" offset="0.71875"/><stop stop-opacity="1" stop-color="rgb(53.097534%, 41.4505%, 74.993896%)" offset="0.722656"/><stop stop-opacity="1" stop-color="rgb(53.570557%, 41.992188%, 75.442505%)" offset="0.726562"/><stop stop-opacity="1" stop-color="rgb(54.043579%, 42.533875%, 75.889587%)" offset="0.730469"/><stop stop-opacity="1" stop-color="rgb(54.516602%, 43.075562%, 76.338196%)" offset="0.734375"/><stop stop-opacity="1" stop-color="rgb(54.988098%, 43.615723%, 76.786804%)" offset="0.738281"/><stop stop-opacity="1" stop-color="rgb(55.461121%, 44.15741%, 77.235413%)" offset="0.742188"/><stop stop-opacity="1" stop-color="rgb(55.934143%, 44.699097%, 77.682495%)" offset="0.746094"/><stop stop-opacity="1" stop-color="rgb(56.407166%, 45.240784%, 78.131104%)" offset="0.75"/><stop stop-opacity="1" stop-color="rgb(56.878662%, 45.780945%, 78.578186%)" offset="0.753906"/><stop stop-opacity="1" stop-color="rgb(57.351685%, 46.322632%, 79.026794%)" offset="0.757812"/><stop stop-opacity="1" stop-color="rgb(57.824707%, 46.862793%, 79.473877%)" offset="0.761719"/><stop stop-opacity="1" stop-color="rgb(58.297729%, 47.40448%, 79.922485%)" offset="0.765625"/><stop stop-opacity="1" stop-color="rgb(58.769226%, 47.946167%, 80.369568%)" offset="0.769531"/><stop stop-opacity="1" stop-color="rgb(59.242249%, 48.487854%, 80.818176%)" offset="0.773438"/><stop stop-opacity="1" stop-color="rgb(59.715271%, 49.028015%, 81.265259%)" offset="0.777344"/><stop stop-opacity="1" stop-color="rgb(60.188293%, 49.569702%, 81.713867%)" offset="0.78125"/><stop stop-opacity="1" stop-color="rgb(60.65979%, 50.111389%, 82.162476%)" offset="0.785156"/><stop stop-opacity="1" stop-color="rgb(61.132812%, 50.653076%, 82.611084%)" offset="0.789062"/><stop stop-opacity="1" stop-color="rgb(61.605835%, 51.193237%, 83.058167%)" offset="0.792969"/><stop stop-opacity="1" stop-color="rgb(62.078857%, 51.734924%, 83.506775%)" offset="0.796875"/><stop stop-opacity="1" stop-color="rgb(62.550354%, 52.275085%, 83.953857%)" offset="0.800781"/><stop stop-opacity="1" stop-color="rgb(63.023376%, 52.816772%, 84.402466%)" offset="0.804688"/><stop stop-opacity="1" stop-color="rgb(63.496399%, 53.358459%, 84.849548%)" offset="0.808594"/><stop stop-opacity="1" stop-color="rgb(63.969421%, 53.900146%, 85.298157%)" offset="0.8125"/><stop stop-opacity="1" stop-color="rgb(64.440918%, 54.440308%, 85.745239%)" offset="0.816406"/><stop stop-opacity="1" stop-color="rgb(64.91394%, 54.981995%, 86.193848%)" offset="0.820312"/><stop stop-opacity="1" stop-color="rgb(65.386963%, 55.523682%, 86.64093%)" offset="0.824219"/><stop stop-opacity="1" stop-color="rgb(65.859985%, 56.065369%, 87.089539%)" offset="0.828125"/><stop stop-opacity="1" stop-color="rgb(66.331482%, 56.60553%, 87.538147%)" offset="0.832031"/><stop stop-opacity="1" stop-color="rgb(66.804504%, 57.147217%, 87.986755%)" offset="0.835937"/><stop stop-opacity="1" stop-color="rgb(67.277527%, 57.687378%, 88.433838%)" offset="0.839844"/><stop stop-opacity="1" stop-color="rgb(67.750549%, 58.229065%, 88.882446%)" offset="0.84375"/><stop stop-opacity="1" stop-color="rgb(68.223572%, 58.770752%, 89.329529%)" offset="0.847656"/><stop stop-opacity="1" stop-color="rgb(68.696594%, 59.312439%, 89.778137%)" offset="0.851562"/><stop stop-opacity="1" stop-color="rgb(69.168091%, 59.8526%, 90.22522%)" offset="0.855469"/><stop stop-opacity="1" stop-color="rgb(69.641113%, 60.394287%, 90.673828%)" offset="0.859375"/><stop stop-opacity="1" stop-color="rgb(70.114136%, 60.934448%, 91.120911%)" offset="0.863281"/><stop stop-opacity="1" stop-color="rgb(70.587158%, 61.476135%, 91.569519%)" offset="0.867188"/><stop stop-opacity="1" stop-color="rgb(71.058655%, 62.017822%, 92.016602%)" offset="0.871094"/><stop stop-opacity="1" stop-color="rgb(71.531677%, 62.559509%, 92.46521%)" offset="0.875"/><stop stop-opacity="1" stop-color="rgb(72.0047%, 63.09967%, 92.913818%)" offset="0.878906"/><stop stop-opacity="1" stop-color="rgb(72.477722%, 63.641357%, 93.362427%)" offset="0.882812"/><stop stop-opacity="1" stop-color="rgb(72.949219%, 64.183044%, 93.809509%)" offset="0.886719"/><stop stop-opacity="1" stop-color="rgb(73.422241%, 64.724731%, 94.258118%)" offset="0.890625"/><stop stop-opacity="1" stop-color="rgb(73.760986%, 65.112305%, 94.578552%)" offset="0.894531"/><stop stop-opacity="1" stop-color="rgb(74.099731%, 65.499878%, 94.898987%)" offset="0.898438"/><stop stop-opacity="1" stop-color="rgb(74.099731%, 65.499878%, 94.898987%)" offset="0.90625"/><stop stop-opacity="1" stop-color="rgb(74.099731%, 65.499878%, 94.898987%)" offset="0.9375"/><stop stop-opacity="1" stop-color="rgb(74.099731%, 65.499878%, 94.898987%)" offset="1"/></linearGradient><clipPath id="f3d3bf7424"><path d="M 195 25.640625 L 218 25.640625 L 218 52.808594 L 195 52.808594 Z M 195 25.640625 " clip-rule="nonzero"/></clipPath><clipPath id="ea92928ff2"><path d="M 217.988281 52.589844 L 212.035156 52.589844 L 210.777344 47.21875 L 202.195312 47.21875 L 200.898438 52.589844 L 195.328125 52.589844 L 202.273438 25.742188 L 211.042969 25.742188 Z M 206.503906 29.15625 L 203.226562 42.921875 L 209.746094 42.921875 Z M 206.503906 29.15625 " clip-rule="nonzero"/></clipPath><linearGradient x1="58.831745" gradientTransform="matrix(0.397327, 0, 0, 0.399493, 194.95466, 25.642411)" y1="35.495453" x2="0.034469" gradientUnits="userSpaceOnUse" y2="33.906337" id="8920063e48"><stop stop-opacity="1" stop-color="rgb(63.386536%, 53.16925%, 84.591675%)" offset="0"/><stop stop-opacity="1" stop-color="rgb(63.232422%, 52.992249%, 84.44519%)" offset="0.0078125"/><stop stop-opacity="1" stop-color="rgb(62.924194%, 52.639771%, 84.153748%)" offset="0.015625"/><stop stop-opacity="1" stop-color="rgb(62.615967%, 52.285767%, 83.860779%)" offset="0.0234375"/><stop stop-opacity="1" stop-color="rgb(62.309265%, 51.933289%, 83.569336%)" offset="0.0308669"/><stop stop-opacity="1" stop-color="rgb(62.155151%, 51.756287%, 83.422852%)" offset="0.03125"/><stop stop-opacity="1" stop-color="rgb(62.001038%, 51.579285%, 83.276367%)" offset="0.0390625"/><stop stop-opacity="1" stop-color="rgb(61.69281%, 51.225281%, 82.984924%)" offset="0.046875"/><stop stop-opacity="1" stop-color="rgb(61.384583%, 50.872803%, 82.693481%)" offset="0.0546875"/><stop stop-opacity="1" stop-color="rgb(61.076355%, 50.518799%, 82.400513%)" offset="0.0625"/><stop stop-opacity="1" stop-color="rgb(60.769653%, 50.164795%, 82.10907%)" offset="0.0703125"/><stop stop-opacity="1" stop-color="rgb(60.461426%, 49.812317%, 81.816101%)" offset="0.078125"/><stop stop-opacity="1" stop-color="rgb(60.153198%, 49.458313%, 81.524658%)" offset="0.0859375"/><stop stop-opacity="1" stop-color="rgb(59.844971%, 49.105835%, 81.231689%)" offset="0.09375"/><stop stop-opacity="1" stop-color="rgb(59.538269%, 48.751831%, 80.940247%)" offset="0.101563"/><stop stop-opacity="1" stop-color="rgb(59.230042%, 48.397827%, 80.647278%)" offset="0.109375"/><stop stop-opacity="1" stop-color="rgb(58.921814%, 48.045349%, 80.355835%)" offset="0.117188"/><stop stop-opacity="1" stop-color="rgb(58.613586%, 47.691345%, 80.062866%)" offset="0.125"/><stop stop-opacity="1" stop-color="rgb(58.305359%, 47.338867%, 79.771423%)" offset="0.132812"/><stop stop-opacity="1" stop-color="rgb(57.998657%, 46.984863%, 79.478455%)" offset="0.140625"/><stop stop-opacity="1" stop-color="rgb(57.69043%, 46.630859%, 79.187012%)" offset="0.148438"/><stop stop-opacity="1" stop-color="rgb(57.382202%, 46.278381%, 78.894043%)" offset="0.15625"/><stop stop-opacity="1" stop-color="rgb(57.073975%, 45.924377%, 78.6026%)" offset="0.164063"/><stop stop-opacity="1" stop-color="rgb(56.767273%, 45.570374%, 78.309631%)" offset="0.171875"/><stop stop-opacity="1" stop-color="rgb(56.459045%, 45.217896%, 78.018188%)" offset="0.179688"/><stop stop-opacity="1" stop-color="rgb(56.150818%, 44.863892%, 77.72522%)" offset="0.1875"/><stop stop-opacity="1" stop-color="rgb(55.84259%, 44.511414%, 77.433777%)" offset="0.195313"/><stop stop-opacity="1" stop-color="rgb(55.534363%, 44.15741%, 77.142334%)" offset="0.203125"/><stop stop-opacity="1" stop-color="rgb(55.227661%, 43.803406%, 76.849365%)" offset="0.210938"/><stop stop-opacity="1" stop-color="rgb(54.919434%, 43.450928%, 76.557922%)" offset="0.21875"/><stop stop-opacity="1" stop-color="rgb(54.611206%, 43.096924%, 76.264954%)" offset="0.226563"/><stop stop-opacity="1" stop-color="rgb(54.302979%, 42.744446%, 75.973511%)" offset="0.234375"/><stop stop-opacity="1" stop-color="rgb(53.996277%, 42.390442%, 75.680542%)" offset="0.242188"/><stop stop-opacity="1" stop-color="rgb(53.688049%, 42.036438%, 75.389099%)" offset="0.25"/><stop stop-opacity="1" stop-color="rgb(53.379822%, 41.68396%, 75.09613%)" offset="0.257812"/><stop stop-opacity="1" stop-color="rgb(53.071594%, 41.329956%, 74.804688%)" offset="0.265625"/><stop stop-opacity="1" stop-color="rgb(52.763367%, 40.977478%, 74.511719%)" offset="0.273438"/><stop stop-opacity="1" stop-color="rgb(52.456665%, 40.623474%, 74.220276%)" offset="0.28125"/><stop stop-opacity="1" stop-color="rgb(52.148438%, 40.26947%, 73.927307%)" offset="0.289062"/><stop stop-opacity="1" stop-color="rgb(51.84021%, 39.916992%, 73.635864%)" offset="0.296875"/><stop stop-opacity="1" stop-color="rgb(51.531982%, 39.562988%, 73.342896%)" offset="0.304688"/><stop stop-opacity="1" stop-color="rgb(51.225281%, 39.208984%, 73.051453%)" offset="0.3125"/><stop stop-opacity="1" stop-color="rgb(50.917053%, 38.856506%, 72.758484%)" offset="0.320312"/><stop stop-opacity="1" stop-color="rgb(50.608826%, 38.502502%, 72.467041%)" offset="0.328125"/><stop stop-opacity="1" stop-color="rgb(50.300598%, 38.150024%, 72.174072%)" offset="0.335938"/><stop stop-opacity="1" stop-color="rgb(49.992371%, 37.796021%, 71.882629%)" offset="0.34375"/><stop stop-opacity="1" stop-color="rgb(49.685669%, 37.442017%, 71.591187%)" offset="0.351562"/><stop stop-opacity="1" stop-color="rgb(49.377441%, 37.089539%, 71.298218%)" offset="0.359375"/><stop stop-opacity="1" stop-color="rgb(49.069214%, 36.735535%, 71.006775%)" offset="0.367188"/><stop stop-opacity="1" stop-color="rgb(48.760986%, 36.383057%, 70.713806%)" offset="0.375"/><stop stop-opacity="1" stop-color="rgb(48.454285%, 36.029053%, 70.422363%)" offset="0.382812"/><stop stop-opacity="1" stop-color="rgb(48.146057%, 35.675049%, 70.129395%)" offset="0.390625"/><stop stop-opacity="1" stop-color="rgb(47.83783%, 35.322571%, 69.837952%)" offset="0.398438"/><stop stop-opacity="1" stop-color="rgb(47.529602%, 34.968567%, 69.544983%)" offset="0.40625"/><stop stop-opacity="1" stop-color="rgb(47.221375%, 34.614563%, 69.25354%)" offset="0.414062"/><stop stop-opacity="1" stop-color="rgb(46.914673%, 34.262085%, 68.960571%)" offset="0.421875"/><stop stop-opacity="1" stop-color="rgb(46.606445%, 33.908081%, 68.669128%)" offset="0.429688"/><stop stop-opacity="1" stop-color="rgb(46.298218%, 33.555603%, 68.37616%)" offset="0.4375"/><stop stop-opacity="1" stop-color="rgb(45.98999%, 33.201599%, 68.084717%)" offset="0.445312"/><stop stop-opacity="1" stop-color="rgb(45.683289%, 32.847595%, 67.791748%)" offset="0.453125"/><stop stop-opacity="1" stop-color="rgb(45.375061%, 32.495117%, 67.500305%)" offset="0.460938"/><stop stop-opacity="1" stop-color="rgb(45.066833%, 32.141113%, 67.207336%)" offset="0.46875"/><stop stop-opacity="1" stop-color="rgb(44.758606%, 31.788635%, 66.915894%)" offset="0.476562"/><stop stop-opacity="1" stop-color="rgb(44.450378%, 31.434631%, 66.622925%)" offset="0.484375"/><stop stop-opacity="1" stop-color="rgb(44.143677%, 31.080627%, 66.331482%)" offset="0.492187"/><stop stop-opacity="1" stop-color="rgb(43.835449%, 30.728149%, 66.040039%)" offset="0.5"/><stop stop-opacity="1" stop-color="rgb(43.527222%, 30.374146%, 65.74707%)" offset="0.507812"/><stop stop-opacity="1" stop-color="rgb(43.218994%, 30.021667%, 65.455627%)" offset="0.515625"/><stop stop-opacity="1" stop-color="rgb(42.912292%, 29.667664%, 65.162659%)" offset="0.523437"/><stop stop-opacity="1" stop-color="rgb(42.604065%, 29.31366%, 64.871216%)" offset="0.53125"/><stop stop-opacity="1" stop-color="rgb(42.295837%, 28.961182%, 64.578247%)" offset="0.539062"/><stop stop-opacity="1" stop-color="rgb(41.98761%, 28.607178%, 64.286804%)" offset="0.546875"/><stop stop-opacity="1" stop-color="rgb(41.679382%, 28.253174%, 63.993835%)" offset="0.554688"/><stop stop-opacity="1" stop-color="rgb(41.372681%, 27.900696%, 63.702393%)" offset="0.5625"/><stop stop-opacity="1" stop-color="rgb(41.064453%, 27.546692%, 63.409424%)" offset="0.570312"/><stop stop-opacity="1" stop-color="rgb(40.756226%, 27.194214%, 63.117981%)" offset="0.578125"/><stop stop-opacity="1" stop-color="rgb(40.447998%, 26.84021%, 62.825012%)" offset="0.585938"/><stop stop-opacity="1" stop-color="rgb(40.139771%, 26.486206%, 62.533569%)" offset="0.59375"/><stop stop-opacity="1" stop-color="rgb(39.833069%, 26.133728%, 62.240601%)" offset="0.601562"/><stop stop-opacity="1" stop-color="rgb(39.524841%, 25.779724%, 61.949158%)" offset="0.609375"/><stop stop-opacity="1" stop-color="rgb(39.216614%, 25.427246%, 61.656189%)" offset="0.617187"/><stop stop-opacity="1" stop-color="rgb(38.908386%, 25.073242%, 61.364746%)" offset="0.625"/><stop stop-opacity="1" stop-color="rgb(38.601685%, 24.719238%, 61.071777%)" offset="0.632812"/><stop stop-opacity="1" stop-color="rgb(38.293457%, 24.36676%, 60.780334%)" offset="0.640625"/><stop stop-opacity="1" stop-color="rgb(37.985229%, 24.012756%, 60.488892%)" offset="0.648438"/><stop stop-opacity="1" stop-color="rgb(37.677002%, 23.660278%, 60.195923%)" offset="0.65625"/><stop stop-opacity="1" stop-color="rgb(37.368774%, 23.306274%, 59.90448%)" offset="0.664062"/><stop stop-opacity="1" stop-color="rgb(37.062073%, 22.952271%, 59.611511%)" offset="0.671875"/><stop stop-opacity="1" stop-color="rgb(36.753845%, 22.599792%, 59.320068%)" offset="0.679688"/><stop stop-opacity="1" stop-color="rgb(36.445618%, 22.245789%, 59.0271%)" offset="0.6875"/><stop stop-opacity="1" stop-color="rgb(36.13739%, 21.891785%, 58.735657%)" offset="0.695313"/><stop stop-opacity="1" stop-color="rgb(35.830688%, 21.539307%, 58.442688%)" offset="0.703125"/><stop stop-opacity="1" stop-color="rgb(35.522461%, 21.185303%, 58.151245%)" offset="0.710937"/><stop stop-opacity="1" stop-color="rgb(35.214233%, 20.832825%, 57.858276%)" offset="0.71875"/><stop stop-opacity="1" stop-color="rgb(34.906006%, 20.478821%, 57.566833%)" offset="0.726562"/><stop stop-opacity="1" stop-color="rgb(34.597778%, 20.124817%, 57.273865%)" offset="0.734375"/><stop stop-opacity="1" stop-color="rgb(34.291077%, 19.772339%, 56.982422%)" offset="0.742188"/><stop stop-opacity="1" stop-color="rgb(33.982849%, 19.418335%, 56.689453%)" offset="0.75"/><stop stop-opacity="1" stop-color="rgb(33.674622%, 19.065857%, 56.39801%)" offset="0.757812"/><stop stop-opacity="1" stop-color="rgb(33.366394%, 18.711853%, 56.105042%)" offset="0.765625"/><stop stop-opacity="1" stop-color="rgb(33.059692%, 18.357849%, 55.813599%)" offset="0.773438"/><stop stop-opacity="1" stop-color="rgb(32.751465%, 18.005371%, 55.52063%)" offset="0.78125"/><stop stop-opacity="1" stop-color="rgb(32.443237%, 17.651367%, 55.229187%)" offset="0.789063"/><stop stop-opacity="1" stop-color="rgb(32.13501%, 17.297363%, 54.937744%)" offset="0.796875"/><stop stop-opacity="1" stop-color="rgb(31.826782%, 16.944885%, 54.644775%)" offset="0.804687"/><stop stop-opacity="1" stop-color="rgb(31.520081%, 16.590881%, 54.353333%)" offset="0.8125"/><stop stop-opacity="1" stop-color="rgb(31.211853%, 16.238403%, 54.060364%)" offset="0.820312"/><stop stop-opacity="1" stop-color="rgb(30.903625%, 15.884399%, 53.768921%)" offset="0.828125"/><stop stop-opacity="1" stop-color="rgb(30.595398%, 15.530396%, 53.475952%)" offset="0.835938"/><stop stop-opacity="1" stop-color="rgb(30.288696%, 15.177917%, 53.184509%)" offset="0.84375"/><stop stop-opacity="1" stop-color="rgb(29.980469%, 14.823914%, 52.891541%)" offset="0.851562"/><stop stop-opacity="1" stop-color="rgb(29.672241%, 14.471436%, 52.600098%)" offset="0.859375"/><stop stop-opacity="1" stop-color="rgb(29.364014%, 14.117432%, 52.307129%)" offset="0.867188"/><stop stop-opacity="1" stop-color="rgb(29.055786%, 13.763428%, 52.015686%)" offset="0.875"/><stop stop-opacity="1" stop-color="rgb(28.749084%, 13.41095%, 51.722717%)" offset="0.882813"/><stop stop-opacity="1" stop-color="rgb(28.440857%, 13.056946%, 51.431274%)" offset="0.890625"/><stop stop-opacity="1" stop-color="rgb(28.132629%, 12.704468%, 51.138306%)" offset="0.898438"/><stop stop-opacity="1" stop-color="rgb(27.824402%, 12.350464%, 50.846863%)" offset="0.90625"/><stop stop-opacity="1" stop-color="rgb(27.5177%, 11.99646%, 50.553894%)" offset="0.914062"/><stop stop-opacity="1" stop-color="rgb(27.209473%, 11.643982%, 50.262451%)" offset="0.921875"/><stop stop-opacity="1" stop-color="rgb(26.901245%, 11.289978%, 49.969482%)" offset="0.929688"/><stop stop-opacity="1" stop-color="rgb(26.593018%, 10.935974%, 49.67804%)" offset="0.9375"/><stop stop-opacity="1" stop-color="rgb(26.368713%, 10.679626%, 49.465942%)" offset="0.969133"/><stop stop-opacity="1" stop-color="rgb(26.298523%, 10.598755%, 49.398804%)" offset="1"/></linearGradient><clipPath id="ef3e159104"><path d="M 218.824219 25.511719 L 224.441406 25.511719 L 224.441406 52.542969 L 218.824219 52.542969 Z M 218.824219 25.511719 " clip-rule="nonzero"/></clipPath><linearGradient x1="16.647836" gradientTransform="matrix(0.398135, 0, 0, 0.402236, 218.447543, 25.411005)" y1="32.61568" x2="-0.727065" gradientUnits="userSpaceOnUse" y2="33.470184" id="ffe924dfe4"><stop stop-opacity="1" stop-color="rgb(62.866211%, 52.574158%, 84.09729%)" offset="0"/><stop stop-opacity="1" stop-color="rgb(62.719727%, 52.406311%, 83.958435%)" offset="0.0625"/><stop stop-opacity="1" stop-color="rgb(62.428284%, 52.072144%, 83.680725%)" offset="0.125"/><stop stop-opacity="1" stop-color="rgb(62.136841%, 51.73645%, 83.403015%)" offset="0.1875"/><stop stop-opacity="1" stop-color="rgb(61.843872%, 51.402283%, 83.125305%)" offset="0.189753"/><stop stop-opacity="1" stop-color="rgb(61.698914%, 51.235962%, 82.98645%)" offset="0.25"/><stop stop-opacity="1" stop-color="rgb(61.552429%, 51.068115%, 82.847595%)" offset="0.3125"/><stop stop-opacity="1" stop-color="rgb(61.260986%, 50.732422%, 82.569885%)" offset="0.375"/><stop stop-opacity="1" stop-color="rgb(60.968018%, 50.398254%, 82.292175%)" offset="0.4375"/><stop stop-opacity="1" stop-color="rgb(60.676575%, 50.064087%, 82.014465%)" offset="0.5"/><stop stop-opacity="1" stop-color="rgb(60.385132%, 49.728394%, 81.736755%)" offset="0.5625"/><stop stop-opacity="1" stop-color="rgb(60.092163%, 49.394226%, 81.459045%)" offset="0.625"/><stop stop-opacity="1" stop-color="rgb(59.80072%, 49.060059%, 81.181335%)" offset="0.6875"/><stop stop-opacity="1" stop-color="rgb(59.509277%, 48.724365%, 80.903625%)" offset="0.75"/><stop stop-opacity="1" stop-color="rgb(59.216309%, 48.390198%, 80.625916%)" offset="0.810247"/><stop stop-opacity="1" stop-color="rgb(59.07135%, 48.223877%, 80.487061%)" offset="0.8125"/><stop stop-opacity="1" stop-color="rgb(58.924866%, 48.05603%, 80.348206%)" offset="0.875"/><stop stop-opacity="1" stop-color="rgb(58.633423%, 47.720337%, 80.070496%)" offset="0.9375"/><stop stop-opacity="1" stop-color="rgb(58.340454%, 47.386169%, 79.792786%)" offset="1"/></linearGradient><clipPath id="64020a584b"><path d="M 0 13.546875 L 46.089844 13.546875 L 46.089844 59.640625 L 0 59.640625 Z M 0 13.546875 " clip-rule="nonzero"/></clipPath></defs><g clip-path="url(#456a50b294)"><path fill="#1a1a1e" d="M 50.878906 51.664062 L 61.398438 51.664062 C 69.277344 51.664062 73.855469 46.457031 73.855469 38.652344 C 73.855469 30.847656 69.238281 25.640625 61.320312 25.640625 L 50.878906 25.640625 Z M 56.429688 30.574219 L 60.855469 30.574219 C 65.667969 30.574219 68.035156 33.332031 68.035156 38.652344 C 68.035156 43.972656 65.707031 46.730469 60.933594 46.730469 L 56.429688 46.730469 Z M 86.183594 52.050781 C 80.128906 52.050781 76.441406 48.011719 76.441406 42.148438 C 76.441406 36.28125 80.128906 32.242188 85.714844 32.242188 C 91.769531 32.242188 94.796875 36.28125 94.796875 41.253906 C 94.796875 42.070312 94.722656 43.15625 94.605469 43.585938 L 81.640625 43.585938 C 81.992188 46.265625 83.777344 47.546875 86.261719 47.546875 C 88.9375 47.546875 90.375 46.378906 91.074219 44.75 L 94.449219 48.128906 C 93.011719 50.1875 90.453125 52.050781 86.183594 52.050781 Z M 85.753906 36.515625 C 83.386719 36.515625 81.914062 37.835938 81.640625 40.398438 L 89.792969 40.398438 C 89.597656 37.875 88.238281 36.515625 85.753906 36.515625 Z M 97.472656 42.148438 C 97.472656 47.972656 101.160156 52.050781 107.023438 52.050781 C 111.5625 52.050781 114.707031 49.566406 115.871094 46.304688 L 111.253906 43.625 C 110.785156 45.992188 109.582031 47.429688 107.214844 47.429688 C 104.769531 47.429688 103.140625 45.644531 103.140625 42.148438 C 103.140625 38.652344 104.769531 36.867188 107.214844 36.867188 C 109.542969 36.867188 110.785156 38.300781 111.253906 40.671875 L 115.871094 37.992188 C 114.707031 34.730469 111.5625 32.242188 107.023438 32.242188 C 101.160156 32.242188 97.472656 36.359375 97.472656 42.148438 Z M 126.539062 52.050781 C 120.757812 52.050781 117.03125 47.972656 117.03125 42.148438 C 117.03125 36.359375 120.757812 32.242188 126.539062 32.242188 C 132.476562 32.242188 136.242188 36.359375 136.242188 42.148438 C 136.242188 47.972656 132.476562 52.050781 126.539062 52.050781 Z M 126.617188 36.75 C 124.289062 36.75 122.65625 38.226562 122.65625 42.148438 C 122.65625 46.03125 124.289062 47.546875 126.617188 47.546875 C 128.984375 47.546875 130.613281 46.03125 130.613281 42.148438 C 130.613281 38.226562 128.984375 36.75 126.617188 36.75 Z M 166.761719 52.050781 C 160.707031 52.050781 157.019531 48.011719 157.019531 42.148438 C 157.019531 36.28125 160.707031 32.242188 166.292969 32.242188 C 172.347656 32.242188 175.375 36.28125 175.375 41.253906 C 175.375 42.070312 175.300781 43.15625 175.183594 43.585938 L 162.21875 43.585938 C 162.570312 46.265625 164.355469 47.546875 166.835938 47.546875 C 169.515625 47.546875 170.953125 46.378906 171.652344 44.75 L 175.027344 48.128906 C 173.589844 50.1875 171.027344 52.050781 166.761719 52.050781 Z M 166.332031 36.515625 C 163.964844 36.515625 162.492188 37.835938 162.21875 40.398438 L 170.371094 40.398438 C 170.175781 37.875 168.816406 36.515625 166.332031 36.515625 Z M 184.117188 51.664062 L 178.566406 51.664062 L 178.566406 32.632812 L 184.117188 32.632812 L 184.117188 38.613281 C 184.738281 35.429688 186.601562 32.242188 190.25 32.242188 C 193.042969 32.242188 194.597656 34.03125 194.597656 37.019531 C 194.597656 39.078125 193.976562 40.710938 193.507812 41.449219 L 188.152344 41.449219 C 188.851562 40.75 189.511719 39.390625 189.511719 38.300781 C 189.511719 37.214844 189.007812 36.398438 187.804688 36.398438 C 185.902344 36.398438 184.117188 38.457031 184.117188 41.605469 Z M 143.167969 51.660156 L 150.195312 51.660156 L 156.871094 32.632812 L 150.816406 32.632812 L 148.175781 41.757812 L 146.742188 48.4375 L 145.265625 41.757812 L 142.625 32.632812 L 136.492188 32.632812 Z M 143.167969 51.660156 " fill-opacity="1" fill-rule="evenodd"/></g><g clip-path="url(#93982c9dfb)"><path fill="#1a1a1e" d="M 51.023438 61.132812 L 51.023438 55.410156 L 51.890625 55.410156 L 51.890625 60.390625 L 54.5 60.390625 L 54.5 61.132812 Z M 55.550781 61.132812 L 55.550781 55.410156 L 59.15625 55.410156 L 59.15625 56.15625 L 56.417969 56.15625 L 56.417969 57.898438 L 58.96875 57.898438 L 58.96875 58.640625 L 56.417969 58.640625 L 56.417969 60.390625 L 59.191406 60.390625 L 59.191406 61.132812 Z M 64.273438 57.21875 C 64.21875 57.050781 64.144531 56.898438 64.054688 56.765625 C 63.964844 56.628906 63.855469 56.511719 63.730469 56.417969 C 63.605469 56.320312 63.460938 56.246094 63.300781 56.195312 C 63.140625 56.144531 62.964844 56.121094 62.777344 56.121094 C 62.453125 56.121094 62.160156 56.203125 61.898438 56.371094 C 61.640625 56.535156 61.433594 56.777344 61.28125 57.097656 C 61.132812 57.417969 61.058594 57.808594 61.058594 58.269531 C 61.058594 58.734375 61.132812 59.125 61.285156 59.445312 C 61.4375 59.765625 61.644531 60.011719 61.90625 60.175781 C 62.171875 60.339844 62.472656 60.425781 62.808594 60.425781 C 63.121094 60.425781 63.394531 60.359375 63.625 60.234375 C 63.859375 60.109375 64.042969 59.929688 64.167969 59.699219 C 64.296875 59.464844 64.363281 59.191406 64.363281 58.875 L 64.585938 58.917969 L 62.941406 58.917969 L 62.941406 58.207031 L 65.203125 58.207031 L 65.203125 58.855469 C 65.203125 59.335938 65.097656 59.753906 64.894531 60.109375 C 64.6875 60.460938 64.40625 60.734375 64.046875 60.925781 C 63.6875 61.117188 63.273438 61.210938 62.808594 61.210938 C 62.289062 61.210938 61.832031 61.09375 61.4375 60.855469 C 61.046875 60.617188 60.742188 60.277344 60.523438 59.839844 C 60.304688 59.402344 60.195312 58.878906 60.195312 58.277344 C 60.195312 57.820312 60.257812 57.410156 60.386719 57.046875 C 60.511719 56.683594 60.691406 56.375 60.921875 56.121094 C 61.15625 55.867188 61.425781 55.671875 61.738281 55.539062 C 62.054688 55.402344 62.398438 55.332031 62.769531 55.332031 C 63.082031 55.332031 63.371094 55.378906 63.636719 55.46875 C 63.90625 55.5625 64.148438 55.691406 64.355469 55.859375 C 64.570312 56.027344 64.742188 56.226562 64.882812 56.457031 C 65.019531 56.6875 65.113281 56.941406 65.164062 57.21875 Z M 66.675781 61.132812 L 65.753906 61.132812 L 67.824219 55.410156 L 68.828125 55.410156 L 70.894531 61.132812 L 69.976562 61.132812 L 68.347656 56.449219 L 68.304688 56.449219 Z M 66.828125 58.894531 L 69.816406 58.894531 L 69.816406 59.621094 L 66.828125 59.621094 Z M 71.789062 61.132812 L 71.789062 55.410156 L 72.65625 55.410156 L 72.65625 60.390625 L 75.265625 60.390625 L 75.265625 61.132812 Z M 71.789062 61.132812 " fill-opacity="1" fill-rule="nonzero"/></g><g clip-path="url(#69357a4054)"><g clip-path="url(#dd0924924e)"><path fill="url(#822c771f64)" d="M 78.472656 55.332031 L 78.472656 61.230469 L 180.28125 61.230469 L 180.28125 55.332031 Z M 78.472656 55.332031 " fill-rule="nonzero"/></g></g><g clip-path="url(#f3d3bf7424)"><g clip-path="url(#ea92928ff2)"><path fill="url(#8920063e48)" d="M 195.328125 25.742188 L 195.328125 52.589844 L 217.988281 52.589844 L 217.988281 25.742188 Z M 195.328125 25.742188 " fill-rule="nonzero"/></g></g><g clip-path="url(#ef3e159104)"><path fill="url(#ffe924dfe4)" d="M 218.824219 25.511719 L 218.824219 52.542969 L 224.441406 52.542969 L 224.441406 25.511719 Z M 218.824219 25.511719 " fill-rule="nonzero"/></g><g clip-path="url(#64020a584b)"><path fill="#7f56d9" d="M 39.339844 20.296875 C 35.019531 15.976562 29.15625 13.546875 23.046875 13.546875 L 23.046875 25.070312 L 9.21875 18.15625 C 8.351562 18.808594 7.523438 19.523438 6.75 20.296875 C 2.429688 24.621094 0 30.480469 0 36.59375 C 0 42.707031 2.429688 48.566406 6.75 52.890625 C 11.070312 57.210938 16.933594 59.640625 23.042969 59.640625 L 23.046875 48.117188 C 19.988281 48.117188 17.058594 46.902344 14.898438 44.742188 C 12.738281 42.582031 11.523438 39.648438 11.523438 36.59375 C 11.523438 33.539062 12.738281 30.605469 14.898438 28.445312 C 17.058594 26.285156 19.988281 25.070312 23.046875 25.070312 L 23.046875 59.640625 C 29.15625 59.640625 35.019531 57.210938 39.339844 52.890625 C 43.660156 48.566406 46.089844 42.707031 46.089844 36.59375 C 46.089844 30.480469 43.660156 24.621094 39.339844 20.296875 Z M 39.339844 20.296875 " fill-opacity="1" fill-rule="evenodd"/></g></svg>